<svg xmlns="http://www.w3.org/2000/svg" width="136" height="34" viewBox="0 0 136 34" fill="none">
<path d="M126.152 20.8817V12.0454L108.524 5.40796L106.23 7.60236L117.338 20.8817H126.152Z" fill="#F9B233"/>
<path d="M119.509 31.9665L108.523 25.3336L117.337 20.8816H126.151L119.509 31.9665Z" fill="#BE1622"/>
<path d="M126.151 12.0454L108.523 5.40796H130.58L126.151 12.0454Z" fill="#E6332A"/>
<path d="M108.524 25.3336L106.23 7.60229L117.338 20.8816L108.524 25.3336Z" fill="#E6332A"/>
<path d="M126.152 20.8817H135.011L130.582 5.40796L126.152 12.0454V20.8817Z" fill="#BE1622"/>
<path d="M119.51 31.9168L126.138 29.8308L135.011 20.8816H126.152L119.51 31.9168Z" fill="#E6332A"/>
<path d="M97.5797 27.5326H80.2954L78.1326 25.3698L77.4102 4.18884L82.1647 2.78009V23.2115H96.3787V22.0556C96.3787 18.2899 92.8929 15.2286 89.1272 15.2286H85.7046L84.6932 11.0204L94.9473 2.17505L95.5433 6.97023L90.7933 11.0294C96.1529 11.8376 99.7335 16.4748 99.7335 22.0556V25.3743L97.5797 27.5326Z" fill="#E6332A"/>
<path d="M58.4584 27.5325H53.7535L52.3809 23.207H58.4584C59.9439 23.207 61.1585 21.9969 61.1585 20.5068L60.3638 9.19167L65.4841 7.62939V20.5068C65.4796 24.3809 62.3324 27.5325 58.4584 27.5325Z" fill="#F9B233"/>
<path d="M50.0469 27.5327H12.164C5.4544 27.5327 0 22.0738 0 15.3687V7.43539L3.44964 5.69702C3.55349 5.77378 13.8843 13.3413 22.6665 13.3413C31.3583 13.3413 35.3407 12.1583 38.0905 11.0024L40.1314 13.549L38.6594 18.0055L36.2438 16.213C33.2637 17.0348 27.6332 17.6127 21.1764 17.6127C13.3606 17.6127 6.0459 11.9958 3.24194 9.544V15.3641C3.24194 19.6852 6.75931 23.2026 11.0804 23.2026H48.3446L47.2655 12.9846L52.2142 11.6346V23.2026L50.0469 27.5327Z" fill="#F9B233"/>
<path d="M87.9832 6.618L87.6445 4.46875L92.3042 0.432129L92.7513 2.4685L87.9832 6.618Z" fill="#E6332A"/>
<path d="M58.0756 13.2013L54.7344 14.2217V10.8759L58.0756 9.85547V13.2013Z" fill="#F9B233"/>
<path d="M60.043 29.4607H53.9609V30.0928H60.043V29.4607Z" fill="#F9B233"/>
<path d="M62.6895 28.8463C69.4262 26.7874 69.7693 20.7957 69.7693 19.6172L69.1688 6.59527L74.0949 5.15942V20.8408C74.0949 25.2387 71.6838 30.815 65.367 33.4519L62.6895 28.8463Z" fill="#E6332A"/>
</svg>